<svg width="90.999023" height="{35.000000}" viewBox="0 0 90.999 35" fill="none" xmlns="http://www.w3.org/2000/svg" xmlnsxlink="http://www.w3.org/1999/xlink">
  <desc>
    Created with Pixso.
  </desc>
  <defs />
  <path id="Vector" d="M58.09 3.93L62.41 9.85L69.18 0L61.24 0L58.09 3.93Z" fill="#1E1E1E" fillopacity="{1.000000}" fillrule="evenodd" />
  <path id="Vector " d="M62.41 13.67L69.18 23.29L61.36 23.29L58.09 19.12L62.41 13.67Z" fill="#1E1E1E" fillopacity="{1.000000}" fillrule="evenodd" />
  <path id="Vector " d="M84.46 6.02L84.46 23.41L77.46 23.41L77.46 6.02L70.69 6.02L70.69 0L90.99 0L90.99 6.02L84.46 6.02Z" fill="#1E1E1E" fillopacity="{1.000000}" fillrule="evenodd" />
  <path id="Vector " d="M0 0L0 23.17L6.29 23.17L6.29 11.16L15.16 23.17L21.93 23.17L21.93 6.02L43.04 6.02L43.04 0L15.16 0L15.16 12.05L6.53 0L0 0Z" fill="#1E1E1E" fillopacity="{1.000000}" fillrule="evenodd" />
  <path id="Vector " d="M42.93 23.17L42.93 17.61L30.79 17.61L30.79 14.37L36.63 14.37L36.63 8.34L24.5 8.34L24.5 23.17L42.93 23.17Z" fill="#1E1E1E" fillopacity="{1.000000}" fillrule="evenodd" />
  <path id="Vector " d="M45.03 0L52.49 0L60.66 11.58L52.26 23.41L45.03 23.41L51.09 14.37L39.19 14.37L39.19 8.34L51.09 8.34L44.79 0L45.03 0Z" fill="#1E1E1E" fillopacity="{1.000000}" fillrule="evenodd" />
  <path id="STORE" d="M45.02 31.01Q45.18 30.51 45.18 29.89Q45.18 29.06 44.9 28.44Q44.71 28.04 44.41 27.75Q44.26 27.6 44.08 27.49Q43.54 27.15 42.74 27.15Q41.92 27.15 41.37 27.49Q41.15 27.63 40.98 27.8Q40.71 28.08 40.55 28.45Q40.28 29.07 40.28 29.89Q40.28 30.5 40.43 31.01Q40.58 31.52 40.89 31.88Q40.96 31.97 41.05 32.05Q41.31 32.29 41.65 32.44Q42.11 32.64 42.73 32.64Q43.33 32.64 43.79 32.44Q44.11 32.3 44.36 32.08Q44.46 31.99 44.55 31.88Q44.86 31.52 45.02 31.01ZM6.35 31.88Q6.53 31.57 6.53 31.15Q6.53 30.72 6.36 30.45Q6.19 30.17 5.86 29.98Q5.53 29.79 5.06 29.62Q4.63 29.46 4.37 29.32Q4.11 29.17 3.99 28.99Q3.87 28.8 3.87 28.52Q3.87 28.3 3.97 28.14Q3.98 28.11 4 28.09Q4.01 28.08 4.01 28.07Q4.14 27.9 4.36 27.81Q4.59 27.71 4.94 27.71Q5.28 27.71 5.6 27.79Q5.92 27.87 6.21 27.99L6.41 27.45Q6.1 27.32 5.74 27.24Q5.38 27.16 4.95 27.16Q4.45 27.16 4.07 27.32Q3.74 27.46 3.53 27.7Q3.5 27.74 3.46 27.79Q3.43 27.84 3.4 27.89Q3.25 28.16 3.25 28.52Q3.25 28.83 3.34 29.07Q3.39 29.21 3.47 29.33Q3.53 29.42 3.6 29.49Q3.78 29.67 4.04 29.82Q4.29 29.96 4.63 30.08Q5.11 30.25 5.39 30.41Q5.67 30.56 5.79 30.74Q5.91 30.92 5.91 31.2Q5.91 31.44 5.81 31.62Q5.79 31.65 5.77 31.68L5.77 31.69Q5.62 31.89 5.35 31.99Q5.07 32.1 4.67 32.1Q4.24 32.1 3.85 32.01Q3.45 31.91 3.18 31.8L3.18 32.39Q3.35 32.47 3.58 32.53Q3.8 32.58 4.07 32.61Q4.34 32.64 4.64 32.64Q5.22 32.64 5.64 32.46Q6 32.31 6.23 32.05Q6.26 32 6.3 31.95Q6.32 31.92 6.35 31.88ZM23.04 32.57L23.67 32.57L23.67 27.78L25.34 27.78L25.34 27.24L21.37 27.24L21.37 27.78L23.04 27.78L23.04 32.57ZM63.3 27.4Q62.87 27.24 62.21 27.24L60.77 27.24L60.77 32.57L61.39 32.57L61.39 30.34L62.5 30.34L63.8 32.57L64.53 32.57L63.06 30.17Q63.12 30.15 63.18 30.13Q63.4 30.04 63.59 29.9Q63.65 29.86 63.7 29.82Q63.88 29.66 63.99 29.44Q64.15 29.16 64.15 28.74Q64.15 28.22 63.94 27.89Q63.91 27.85 63.87 27.8Q63.67 27.54 63.3 27.4ZM79.79 32.57L82.76 32.57L82.76 32.02L80.41 32.02L80.41 30.05L82.62 30.05L82.62 29.51L80.41 29.51L80.41 27.78L82.76 27.78L82.76 27.24L79.79 27.24L79.79 32.57ZM41.13 31.07Q40.93 30.57 40.93 29.89Q40.93 29.21 41.13 28.72Q41.27 28.35 41.54 28.11Q41.62 28.03 41.72 27.96Q42.12 27.7 42.74 27.7Q43.45 27.7 43.87 28.05Q43.99 28.15 44.09 28.28Q44.52 28.86 44.52 29.89Q44.52 30.57 44.33 31.07Q44.19 31.45 43.91 31.7Q43.84 31.77 43.75 31.83Q43.35 32.1 42.73 32.1Q42.12 32.1 41.72 31.83Q41.63 31.77 41.55 31.7Q41.27 31.45 41.13 31.07ZM61.39 27.77L62.18 27.77Q62.85 27.77 63.18 28Q63.23 28.04 63.28 28.08Q63.51 28.31 63.51 28.77Q63.51 29.19 63.3 29.45Q63.25 29.5 63.2 29.55Q62.89 29.82 62.24 29.82L61.39 29.82L61.39 27.77Z" fill="#FF0101" fillopacity="{1.000000}" fillrule="evenodd" />
</svg>


